# xmcd
#
# Track frame offsets:
#	150
#	32780
#	61286
#	127183
#
# Disc length: 2189 seconds
#
# Revision: 1
# Processed by: cddbd v1.5.2PL0 Copyright (c) Steve Scherf et al.
# Submitted via: audiograbber 1.83.01
#
DISCID=35088b04
DTITLE=Grateful Dead - 70-12-31 Winterland Arena, San Francisco CA
DYEAR=1900
DGENRE=
TTITLE0=China Cat Sunflower
TTITLE1=I Know You Rider
TTITLE2=Good Lovin'
TTITLE3=Uncle John's Band
EXTD=
EXTT0=
EXTT1=
EXTT2=
EXTT3=
PLAYORDER=
